<svg xmlns="http://www.w3.org/2000/svg" viewBox="0 0 61.75 170.82"><defs><style>.cls-1{fill:none;stroke:#393939;stroke-miterlimit:10;}.cls-2{fill:#393939;}</style></defs><g id="レイヤー_2" data-name="レイヤー 2"><g id="レイヤー_1-2" data-name="レイヤー 1"><polyline class="cls-1" points="31.82 54.53 31.82 169.66 39.67 162.27"/><path class="cls-2" d="M.59,10.43C1.6,12.08,2.87,13,4.2,13a1.39,1.39,0,0,0,1.5-1.33c0-.82-.46-1.16-2.07-1.49C1.37,9.67.27,8.7.27,7.2A2.69,2.69,0,0,1,3,4.52a2.58,2.58,0,0,1,1,.19,2.5,2.5,0,0,0,.61.15,5.7,5.7,0,0,0,1.29-.3l.93,2.75-.59.33a5.21,5.21,0,0,0-.62-.84A3.45,3.45,0,0,0,3,5.34c-.85,0-1.42.47-1.42,1.2S2.2,7.73,3.74,8C6,8.38,7.12,9.35,7.12,10.92a2.82,2.82,0,0,1-2.79,2.85,3.57,3.57,0,0,1-1.21-.22,2.09,2.09,0,0,0-.54-.16A10.14,10.14,0,0,0,1,13.75l-1-3Z"/><path class="cls-2" d="M19.74,11.34a8.83,8.83,0,0,1-1.08,1.43,3.92,3.92,0,0,1-2.66,1,4,4,0,0,1-4-4.25,4.82,4.82,0,0,1,4.48-5c1.5,0,3,1,3,2a1.1,1.1,0,0,1-1,1c-.55,0-.89-.4-1.1-1.23s-.54-1.07-1.24-1.07C14.86,5.28,14,6.59,14,8.62c0,2.42,1,3.92,2.66,3.92,1.05,0,1.6-.34,2.47-1.6Z"/><path class="cls-2" d="M27.28,6.74c1-1.53,1.88-2.22,2.87-2.22A1.14,1.14,0,0,1,31.31,5.7a1.12,1.12,0,0,1-1,1.18,1.19,1.19,0,0,1-.65-.23,1.51,1.51,0,0,0-.68-.27c-.5,0-.86.31-1.66,1.29v3.71c0,1.29.14,1.42,1.37,1.42H29v.71H24.13V12.8h.1c1.1,0,1.25-.17,1.25-1.42V7.66c0-1.31-.17-1.52-1.29-1.6V5.45l3.09-1Z"/><path class="cls-2" d="M39.82,4.52A4.41,4.41,0,0,1,44,9.16a4.26,4.26,0,1,1-8.49,0A4.43,4.43,0,0,1,39.82,4.52Zm0,8.49C41.23,13,42,11.66,42,9.16S41.23,5.3,39.84,5.3s-2.22,1.41-2.22,3.86S38.44,13,39.8,13Z"/><path class="cls-2" d="M51.91,11.38c0,1.2.11,1.35,1.14,1.42v.71H48.83V12.8h0c1.1,0,1.23-.15,1.23-1.42V3.15c0-1.19-.19-1.42-1.29-1.52V1l3.1-1Z"/><path class="cls-2" d="M60.61,11.38c0,1.2.11,1.35,1.14,1.42v.71H57.53V12.8h0c1.1,0,1.23-.15,1.23-1.42V3.15c0-1.19-.19-1.42-1.29-1.52V1l3.1-1Z"/><path class="cls-2" d="M10,35c-1,1-1.52,1.31-2.45,1.31-1.84,0-3.44-2.14-3.44-4.63s1.6-4.62,3.59-4.62A3.18,3.18,0,0,1,10,28.23V25.76c0-1.29-.21-1.52-1.37-1.57v-.63l3.16-1V34c0,1.24.11,1.37,1.14,1.44v.69a19,19,0,0,0-2.93.17Zm0-5.92a2.53,2.53,0,0,0-1.8-.92c-1.35,0-2.06,1.28-2.06,3.71,0,2.11.71,3.36,1.92,3.36A2.41,2.41,0,0,0,10,34.2Z"/><path class="cls-2" d="M21.89,27.09a4.41,4.41,0,0,1,4.21,4.64,4.39,4.39,0,0,1-4.23,4.61,4.43,4.43,0,0,1-4.26-4.61A4.43,4.43,0,0,1,21.89,27.09Zm0,8.49c1.42,0,2.16-1.34,2.16-3.85s-.74-3.86-2.12-3.86-2.23,1.41-2.23,3.86S20.5,35.58,21.87,35.58Z"/><path class="cls-2" d="M34.2,36.32l-2.47-6.93c-.38-1.06-.65-1.31-1.44-1.33v-.7h4v.7c-.64,0-.87.13-.87.44a2.76,2.76,0,0,0,.17.72l1.5,4.46,1.64-4-.16-.51c-.26-.82-.47-1-1.32-1.07v-.7h4v.7c-.65,0-.92.15-.92.44a3.57,3.57,0,0,0,.19.8L40,33.68l1.53-4a2.31,2.31,0,0,0,.16-.78c0-.59-.29-.78-1.18-.84l0-.7h3.49v.7c-.83.08-1.1.32-1.59,1.6l-2.57,6.66h-.72l-2-5.62L34.9,36.32Z"/><path class="cls-2" d="M51.13,28.71a4.18,4.18,0,0,1,3-1.62,2.26,2.26,0,0,1,2,1.09,3.9,3.9,0,0,1,.38,2V34c0,1.2.11,1.35,1.12,1.43v.7H53.54v-.7c1-.08,1.14-.21,1.14-1.43V30.51c0-1.44-.42-2-1.42-2a3,3,0,0,0-2.13,1V34c0,1.2.11,1.35,1.14,1.43v.7H48.05v-.7c1.18,0,1.27-.16,1.27-1.43v-3.8c0-1.2-.22-1.46-1.29-1.52V28l3.1-1Z"/></g></g></svg>