<svg xmlns="http://www.w3.org/2000/svg" viewBox="0 0 39.26 39.26"><defs><style>.cls-1{fill:#fff;}</style></defs><g id="レイヤー_2" data-name="レイヤー 2"><g id="レイヤー_1-2" data-name="レイヤー 1"><circle cx="19.63" cy="19.63" r="19.63"/><path class="cls-1" d="M25.73,12.21a1.35,1.35,0,1,0,1.35,1.34A1.34,1.34,0,0,0,25.73,12.21Z"/><path class="cls-1" d="M19.73,13.94a5.67,5.67,0,1,0,5.66,5.66A5.67,5.67,0,0,0,19.73,13.94Zm0,9.3a3.64,3.64,0,1,1,3.63-3.64A3.63,3.63,0,0,1,19.73,23.24Z"/><path class="cls-1" d="M24.23,31.11H15A6.92,6.92,0,0,1,8.12,24.2V15A6.92,6.92,0,0,1,15,8.1h9.19A6.92,6.92,0,0,1,31.14,15V24.2A6.92,6.92,0,0,1,24.23,31.11ZM15,10.26A4.75,4.75,0,0,0,10.29,15V24.2A4.75,4.75,0,0,0,15,29h9.19A4.75,4.75,0,0,0,29,24.2V15a4.75,4.75,0,0,0-4.75-4.75Z"/></g></g></svg>