<svg xmlns="http://www.w3.org/2000/svg" viewBox="0 0 39.26 39.26"><defs><style>.cls-1{fill:#fff;}</style></defs><g id="レイヤー_2" data-name="レイヤー 2"><g id="レイヤー_1-2" data-name="レイヤー 1"><path d="M39.26,19.63A19.63,19.63,0,1,0,16.56,39V25.31h-5V19.63h5V15.31c0-4.92,2.94-7.64,7.42-7.64a30.31,30.31,0,0,1,4.39.38v4.83H25.9c-2.44,0-3.2,1.52-3.2,3.07v3.68h5.44l-.87,5.68H22.7V39A19.65,19.65,0,0,0,39.26,19.63Z"/><path class="cls-1" d="M27.27,25.31l.87-5.68H22.7V16c0-1.55.76-3.07,3.2-3.07h2.47V8.05A30.31,30.31,0,0,0,24,7.67c-4.48,0-7.42,2.72-7.42,7.64v4.32h-5v5.68h5V39a20.6,20.6,0,0,0,6.14,0V25.31Z"/></g></g></svg>