<svg xmlns="http://www.w3.org/2000/svg" viewBox="0 0 120 146.48"><defs><style>.cls-1{fill:#3f403b;}.cls-2{fill:#60625e;}.cls-3{fill:#8d918c;}.cls-4{fill:#8b8e89;}.cls-5{fill:#7b7d78;}.cls-6{fill:#c0c3bd;}.cls-7{fill:#686a65;}.cls-8{fill:#a3a5a0;}.cls-9{fill:#b1b3ae;}.cls-10{fill:#585b56;}.cls-11{fill:#939792;}.cls-12{fill:#8c8f89;}.cls-13{fill:#a2a49f;}.cls-14{fill:#70736d;}.cls-15{fill:#8c8f8a;}.cls-16{fill:#bfc0be;}.cls-17{fill:#b3b5b0;}.cls-18{fill:#a4a7a2;}.cls-19{fill:#cdcfcd;}.cls-20{fill:#b1b3af;}.cls-21{fill:#c6c7c4;}.cls-22{fill:#696c66;}.cls-23{fill:#5a5e58;}.cls-24{fill:#70756f;}.cls-25{fill:#868a86;}.cls-26{fill:#40413c;}.cls-27{fill:#80847f;}.cls-28{fill:#989b96;}.cls-29{fill:#80817d;}.cls-30{fill:#3f413c;}.cls-31{fill:#a6a9a4;}.cls-32{fill:#474b45;}.cls-33{fill:#7b7e79;}.cls-34{fill:#848782;}.cls-35{fill:#9ea19b;}.cls-36{fill:#8f928c;}.cls-37{fill:#787b76;}.cls-38{fill:#fcfcfc;}.cls-39{fill:#91958f;}.cls-40{fill:#737771;}.cls-41{fill:#e7e6e4;}.cls-42{fill:#878b86;}.cls-43{fill:#757973;}.cls-44{fill:#7f807c;}.cls-45{fill:#969993;}.cls-46{fill:#b0b2ad;}.cls-47{fill:#bcbcba;}</style></defs><g id="レイヤー_2" data-name="レイヤー 2"><g id="レイヤー_1-2" data-name="レイヤー 1"><path class="cls-1" d="M21,61.72A8.14,8.14,0,0,1,20.43,59c.31-2,.92-4,1.39-5.94a1.81,1.81,0,0,0,0-.89c-1-3.13,0-5.87,1.53-8.55,2.5-4.49,5.21-8.89,7.36-13.54a64.67,64.67,0,0,1,6.08-11.19,77.68,77.68,0,0,1,6.64-8.24c3.11-3.22,7.08-5.24,11.21-6.94A47.43,47.43,0,0,1,68.36.64C71.51.33,74.71.48,77.89.36,79.71.29,81.53,0,83.34,0a36.75,36.75,0,0,1,20.93,6.11c1.28.85,2.17,2.27,3.28,3.39A69.5,69.5,0,0,1,113,15.06a40.73,40.73,0,0,1,4.52,7.16c3.22,6.5,2.71,13.44,1.8,20.31a121,121,0,0,1-2.45,12.64c-.84,3.48-2,6.86-3.13,10.27-.33,1-.76,2.06-1.15,3.09-.27.74-2.2,1.28-3,1-1.28-.47-1.78.75-2.09,1.47-.62,1.38-.77,3-1.3,4.4a14.48,14.48,0,0,1-1.46,2.14q-1.31,2.2-2.52,4.46a16.39,16.39,0,0,0-.68,1.68c-.48-1.08-1-2.15-1.42-3.23.59-.94,1.15-1.9,1.78-2.82.84-1.21,2.07-2.28,2.5-3.62.64-1.94,1-3.9,2.25-4.92a19.78,19.78,0,0,1-.69-3.77,10.46,10.46,0,0,1,.84-2.91c1.37-4.25,2.76-8.5,4.12-12.76a46.87,46.87,0,0,0,2.25-14.95c-.06-4.1-.17-8.11-3.24-11.52-2.63-2.93-4.5-6.52-7.08-9.5-3.36-3.9-7.44-6.88-12.76-7.63-3.86-.54-7.72-1-11.62-.31-2.83.53-5.68,1-8.53,1.34a37.14,37.14,0,0,0-14,4.23c-1.08.61-2,1.53-3.1,2.07-3.46,1.68-6.76,3.53-8.81,7-.36.6-.82,1.14-1.23,1.7-1.46,2-3.1,4-4.34,6.1-1.8,3.12-3.32,6.41-5,9.63-2,3.84-3.87,7.69-5.85,11.51A7.61,7.61,0,0,1,25.8,52a5.78,5.78,0,0,0-2,3.39c-.6,2.06-1.3,4.09-2,6.13Z"/><path class="cls-2" d="M27.17,133.55c-1.71-.44-3.44-.84-5.14-1.33a48.72,48.72,0,0,1-10.72-3.92c-1.38-.78-3.18-.78-4.74-1.29a10.74,10.74,0,0,1-3.16-1.47c-3-2.22-3.73-5.35-3.3-8.86.29-2.33.55-4.68,1.07-7s1.33-4.66,2.08-7c.55-1.67,1.23-3.3,1.84-4.95.23.32.62.62.66,1a23,23,0,0,1,0,2.49c0,.58,0,1.17,0,2l1.67.13c-.06.83-.15,1.55-.14,2.26a3.12,3.12,0,0,0,.32.93,9.9,9.9,0,0,0,.85-.73,16.12,16.12,0,0,1,2.37-2.5c.55-.37,1.53-.11,2-.12.3-1,.57-1.75.73-2.5.43-2,2.39-4,.52-6.21,0-.06.12-.28.19-.42l.84.81,1-.89c.09,1,.17,2.1.25,3l3,1.65c0-.46-.05-1-.07-1.35l6.65.76L25.16,100c-.86-.4-1.62-1.16-2.71-.46a12.36,12.36,0,0,1-2.4,1.16c-1.12.41-2.29.72-3.55,1.11-.2,1.27-.44,2.87-.75,4.89a14.07,14.07,0,0,0,3.14-.55,3.38,3.38,0,0,1,3.46.31c.28.19.55.39.9.65.46-1.23.95-1.92,1.89-.52.17.25.68.24.94.46a7.5,7.5,0,0,1,1.14,1.18,9.7,9.7,0,0,1,.68,1.11l.75-.62,1.58.51a15.58,15.58,0,0,1,.4,3.22c-.08,1-.29,2.46-1,2.86-1.82,1.09-2,3.07-2.93,4.56a5.38,5.38,0,0,0-.82,3.69,8.87,8.87,0,0,0,2.23,3.57c2.19,2.46,2.44,3.8.89,6.43Z"/><path class="cls-3" d="M95.21,119.57l-.68,1.82a7.22,7.22,0,0,1-1.23,0c-1-.17-2.08.58-1.62,1.25,1.22,1.78.64,3.62.52,5.47a32.37,32.37,0,0,1-3.38.49,26.41,26.41,0,0,1-3.54-.23c-.27,0-.52-.3-.79-.42s-.72-.27-1.08-.41A5.21,5.21,0,0,0,83,129c0,.56.5,1.32.28,1.65-.78,1.13-.18,2,.11,3.08s.69,2.53.27,2.87c-1.31,1.05-1.13,2.16-.94,3.49.26,1.78-.81,2.61-2.69,2.22.48-1,1.54-1.9.27-2.55.57-.93,1.6-1.82,1.48-2.53-.51-3-1.32-5.95-2.08-8.91a20.84,20.84,0,0,0-.85-2.33c-1,.11-1.8.25-2.59.26s-1.81-.16-2.72-.11a1.61,1.61,0,0,0-1,.68,11.6,11.6,0,0,0-.91,1.63l-.79-1a12.15,12.15,0,0,1-.92.81c-.89.6-1.8,1.18-2.7,1.77l-.9-.66,3.59-2.87-.61-.4a2.19,2.19,0,0,1,.63-.35c3-.58,5.71-1.71,7.48-4.31,1.53-2.25,2.86-4.64,4.28-7-.07.59-.13,1.17-.23,2l4.61-2.69-.79-1.57a10.86,10.86,0,0,0,2.15-.6c1-.55.73-2.52-.43-3.12,0-.44.11-.89.14-1.18l-3.68-.55c.13-.29.26-.58.4-.87l1.31.47.62-.9a3.36,3.36,0,0,0,4.37-2.15c.14-.49.22-1.69,1.43-1.07.1,0,.37-.23.56-.35L94,100.71l.25.3c.24-1.05.49-2.1.73-3.14l-.72-.23c-.3.68-.6,1.36-1,2.29-.11-.66-.17-1.07-.28-1.77l-1.59,1.31q-.27-.73-.57-1.5c-.14-.36-.19-.88-.45-1.06-1.29-.85-1.35-2.09-1.27-3.41l7.28,2.55H95.1c.46.8,1.21,1.19,1.69,1.79s1.06,1.44.12,2.17l-1-.83c-.06.85-.1,1.41-.15,2a5.48,5.48,0,0,0-.51,1,5.48,5.48,0,0,0,0,1.15l-.82.06.06-1.56-.55-.07c-.35.63-1.15,1.55-1,1.86a6.41,6.41,0,0,1,1.12,4.74,1.81,1.81,0,0,0,.38,1.1c.55.87,1.15,1.72,1.73,2.58l-.52,0a4.44,4.44,0,0,0-.57,1.37c0,.58.34,1.17.33,1.75C95.43,116.6,95.3,118.09,95.21,119.57Z"/><path class="cls-4" d="M100.14,80.45c.47,1.08.94,2.15,1.42,3.23.08,1.65.17,3.3.26,4.94l-2.07.71c-.14.8-.32,1.93-.55,3.26-1.33-1.3-2.31-.65-3.4.26l1.5.81-8.52-2.78c-.83-.63-2.33-.76-1.83-2.28-.54-.46-1.48-.93-1.45-1.33.15-2.23-1.44-2.38-2.92-2.73-1.07-.25-1.54-.65-1.17-2,.22-.79.76-2.35-1.19-2.54-.32,1-.35,2.18-1.91,1.58-1.21-.46-2.5-.7-3.72-1.15s-2.2-.17-2.8,1.68L70.64,79l-1.28,3.73-.56-.07a9.38,9.38,0,0,0,0-2.12,17.9,17.9,0,0,0-1-2.75c0-.06-.5-.06-.53,0-.63,1.6-1.39.18-2.16.09-.59.52-1.43,1.22-1.86,0A24.82,24.82,0,0,1,62.52,74l3.32-2.35-1.51-.82c1.83.49,3.67,1,5.51,1.47,5.58,1.48,11.15,3,16.74,4.4a19.07,19.07,0,0,0,4.29.73,12.85,12.85,0,0,1,6.74,1.82A24.7,24.7,0,0,0,100.14,80.45Z"/><path class="cls-5" d="M7.07,90.19l2.82-8.55,2-2.5.8,2.41c1.5-.16,1.63,1,1.82,2.47.18-.75.28-1.15.42-1.7l1.82,2.8c.86-1.23,1.35-2.71,2.2-3,1.17-.34.94-1,1.16-1.7.29-.85.54-1.71.81-2.57.3.64.42,1.51.92,1.88a16.47,16.47,0,0,0,3.53,1.91c1.39.56,2.86.9,4.29,1.34a16.2,16.2,0,0,1,1,2.44c.55,2.2-1.52,4.2-.57,6.47,0,0-.29.22-.29.33A2.22,2.22,0,0,0,30,93.41c.11.16.66.09,1,0a4.6,4.6,0,0,0,.93-.41,2.87,2.87,0,0,1,1,3.38,6.34,6.34,0,0,0,.3,1.87c.09.67.4,1.53.11,2-.71,1.08-.14,1.25.67,1.39l-.56,1c-1-.48-2.37-.28-2.51-1.92,0-.21-1-.41-1.5-.47a4.89,4.89,0,0,0-1.32.23c.37-1.2.7-2.24,1-3.29l-.38-.2L27,98.37c-.68-1.93-1.56-2.55-2.77-2-1.75.75-2.93.35-4-1.43a5.06,5.06,0,0,1-.54.51c-1.35.87-2.39.37-2.82-1.09a24.79,24.79,0,0,0-1.65-3.52l-1.1.27c0-.35-.08-.64-.11-1l-2.22-.17c-.09.32-.19.62-.3,1-.31-.38-.52-.65-.74-.91-.14-.81-.28-1.61-.43-2.42C8.28,87.16,7.88,88.94,7.07,90.19Z"/><path class="cls-6" d="M21,61.72l.84-.25c2.19.19,4.38.39,6.58.54.3,0,.63-.27.95-.42.36.26.69.65,1.1.74,3.69.92,7.38,1.79,11.09,2.65.86.2,1.39-.13,1.34-1.1.1.44.21.89.27,1.15l1.91.69a5.74,5.74,0,0,0-.93,0c-.91.18-2.39.15-2.6.65a15.74,15.74,0,0,0-.63,4.09l-1.87.81,1.81.77c-.15,1.28-.27,2.49-1.81,2.73-.23-.27-.44-.57-.69-.81a14.84,14.84,0,0,0-6.68-3.17c-.45-.4-.84-1-1.37-1.17-1.26-.48-2.59-.78-3.89-1.15a6.22,6.22,0,0,0-2.07-.33c-1.19.11-2.23,1.18-3.57.61-.08,0-.51.48-.57.77a5,5,0,0,0,.06,1.24l-1.71.76-3.39-.89-.27.24L16,72.35c.17,1.92-.22,2.29-1.91,2.48a7.32,7.32,0,0,0-2.2,1.1,17.64,17.64,0,0,1,.79-3.28,79.65,79.65,0,0,1,4-8.26c.58-1,2-1.47,3.06-2.14A8,8,0,0,1,21,61.72Z"/><path class="cls-7" d="M27.17,133.55H29c1.55-2.63,1.3-4-.89-6.43a8.87,8.87,0,0,1-2.23-3.57,5.38,5.38,0,0,1,.82-3.69c1-1.49,1.11-3.47,2.93-4.56.67-.4.88-1.86,1-2.86a15.58,15.58,0,0,0-.4-3.22l0-.7,1.85-.08c.74,1.63,2.71,1.31,3.83,2.37.3.29,1.06.46,1,.65a5.9,5.9,0,0,1-.57,2.75A8.74,8.74,0,0,1,34.13,116l-3.55,3.35.88.68-3.82,1.38c.74.5,1.34,1.26,1.91,1.24a2.07,2.07,0,0,1,2.38,1.94c.49-.39,1.06-.84,1.62-1.3-.44,1.24,2.84.85.79,2.24,2.29,1,2.25,1.7,1.22,3.13a5.93,5.93,0,0,1-1.26.53c-1.28.2-2.4,1-2.47,2,1.43-.75,2.21-.15,2.84,1.5l-2-.37-1,1.85c.33.42.63.78.92,1.14Z"/><path class="cls-8" d="M68.51,143.61l-2.76-.72c-1.24-.9-3-1.65-2.5-3.49s-.59-3-.94-4.44c-.9.95-1.39.46-1.67-.42s-.53-2-.79-3h-.74c-.22.67-.43,1.34-.71,2.22l-3-2.62c-.09-.95.07-1.87-.3-2.4a11,11,0,0,0-2.31-2c-.35-.28-.73-.53-1.47-1.06.1,1.35.16,2.11.23,3.12L49.59,128l1.46-3.08,2,.67c2.7.47,5.39,1,8.11,1.37,2.14.25,4.35.45,6.35-.75l.69,1.22c-.47.18-1,.58-1.38.48-1.15-.3-1.49.63-1.86,1.24-.12.21.63.94,1.2,1.74-.42.64-1,1.58-1.58,2.43.27,1,.54,2,.71,2.69.66.1,1.36,0,1.62.3a9.76,9.76,0,0,1,1.16,2.08l-1,1.24a12.56,12.56,0,0,0-2.46-.4c-.15,0-.26,1-.31,1.16,1.21.27,2.13.45,3,.71a.7.7,0,0,1,.29.64,1,1,0,0,1-.68.51c-.28,0-.59-.19-.88-.3l-.14.3Z"/><path class="cls-9" d="M49.59,128l1.93.84c-.07-1-.13-1.77-.23-3.12.74.53,1.12.78,1.47,1.06a11,11,0,0,1,2.31,2c.37.53.21,1.45.3,2.4l3,2.62c.28-.88.49-1.55.71-2.22h.74c.26,1,.47,2,.79,3s.77,1.37,1.67.42c.35,1.49,1.46,2.65.94,4.44s1.26,2.59,2.5,3.49l-5.09-1.37-2.54-.64c-.46-1.21-.91-2.42-1.37-3.65a2.15,2.15,0,0,1-2.07-2,2,2,0,0,0-2.47-1.66c-.37.12-.9.34-1.13.18-1.63-1.09-2.64-.45-3.38,1.09-.19-.33-.37-.67-.55-1h0A12.69,12.69,0,0,0,49.4,129C49.47,128.63,49.53,128.29,49.59,128Z"/><path class="cls-10" d="M14.29,94.12c-.07.14-.23.36-.19.42,1.87,2.24-.09,4.16-.52,6.21-.16.75-.43,1.48-.73,2.5-.43,0-1.41-.25-2,.12a16.12,16.12,0,0,0-2.37,2.5,9.9,9.9,0,0,1-.85.73,3.12,3.12,0,0,1-.32-.93c0-.71.08-1.43.14-2.26l-1.67-.13c0-.86,0-1.45,0-2a23,23,0,0,0,0-2.49c0-.35-.43-.65-.66-1l.45-1.52c.9-2.47,1.79-4.93,2.68-7.4l.4.1c0,.39.07.78.1,1.17L9,89.93c.61.66,1.23,1.31,1.84,2,0,.14.09.28.14.42.12.43.25.86.38,1.29-.52,1.3-.12,2,1.45,2.47.07-.66.15-1.3.21-1.84l1.3-.11Z"/><path class="cls-8" d="M91.73,130.61c-1.51,3.26-3,6.55-4.55,9.78a23.89,23.89,0,0,1-2.74,4.6c-1.3,1.59-3.16,1.76-5.14,1.19s-4.2-1-6.3-1.56l.15-.3,1.7.2a4.81,4.81,0,0,0,1.75-.08c1.87-.88,1.85-.92,3,1,0,.07.18.06.17.06.48-.44.89-.86,1.35-1.22s1-.63,1.49-1c1.85-1.62,2.05-2.27,1.26-3.66a8.83,8.83,0,0,0,1.61-2,8,8,0,0,0,.25-2.48c0-.4.21-1,0-1.16-1.32-1.22-.37-2.3.37-3.07.35-.36,1.49,0,2.43.11,0-.26,0-.8-.06-1.5.61.06,1.24-.8,1.78.4C90.39,130.33,91.21,130.4,91.73,130.61Z"/><path class="cls-11" d="M91.73,130.61c-.52-.21-1.34-.28-1.5-.65-.54-1.2-1.17-.34-1.78-.4,0,.7,0,1.24.06,1.5-.94-.07-2.08-.47-2.43-.11-.74.77-1.69,1.85-.37,3.07.19.17,0,.76,0,1.16a8,8,0,0,1-.25,2.48,8.83,8.83,0,0,1-1.61,2c.79,1.39.59,2-1.26,3.66-.45.4-1,.66-1.49,1s-.87.78-1.35,1.22c0,0-.13,0-.17-.06-1.11-1.95-1.09-1.91-3-1a4.81,4.81,0,0,1-1.75.08l1.32-.55c0-.58,0-1.15-.09-2A9.62,9.62,0,0,1,78.26,143c.9.78,1.25.28,1.61-.47l.15-.28c1.88.39,3-.44,2.69-2.22-.19-1.33-.37-2.44.94-3.49.42-.34,0-1.92-.27-2.87s-.89-1.95-.11-3.08c.22-.33-.29-1.09-.28-1.65a5.21,5.21,0,0,1,.42-1.42c.36.14.73.25,1.08.41s.52.39.79.42a26.41,26.41,0,0,0,3.54.23,32.37,32.37,0,0,0,3.38-.49c.12-1.85.7-3.69-.52-5.47-.46-.67.58-1.42,1.62-1.25a7.22,7.22,0,0,0,1.23,0A31.74,31.74,0,0,1,91.73,130.61Z"/><path class="cls-12" d="M49.59,128l-.18,1-2.19.43.47.57-2.34.13c.47.81,1,1.43.93,1.68-.62,1.15.11,1.59.87,2.08h0l-1.07.48c.13.71.49,1.41.28,1.78A10.27,10.27,0,0,1,44.6,138l-5.91-1.16a.89.89,0,0,1,.15-.27c.9.5,2,.94,2.45-.28.31-.93-.11-2.11-.21-3.18h0l4.12-2.92c-2.94-.84-.52-2.79-1.65-4l4.28-1.2c-.35-1.52,1.31-.19,2.1-.84l-1.38-.53.07-.44a5.87,5.87,0,0,1,1.28.34,16.66,16.66,0,0,1,1.56,1.13l1.62.91-2-.67Z"/><path class="cls-13" d="M95.21,119.57c.09-1.48.22-3,.24-4.45,0-.58-.35-1.17-.33-1.75a4.44,4.44,0,0,1,.57-1.37l.52,0c-.58-.86-1.18-1.71-1.73-2.58a1.81,1.81,0,0,1-.38-1.1A6.41,6.41,0,0,0,93,103.61c-.19-.31.61-1.23,1-1.86l.55.07-.06,1.56.82-.06a5.48,5.48,0,0,1,0-1.15,5.48,5.48,0,0,1,.51-1l3.16,3.5c-.78,3-1.6,6.09-2.32,9.15-.38,1.63-.57,3.29-.9,4.93A3,3,0,0,1,95.21,119.57Z"/><path class="cls-14" d="M38.84,136.54a.89.89,0,0,0-.15.27l-3.1-.86a7.64,7.64,0,0,0,1.44-.09c.34-.09.84-.32.9-.58.36-1.6.62-3.23.91-4.87-1.15.59-2.1.28-2.56-1.22-.07-.23-.47-.36-.72-.53,1-1.43,1.07-2.16-1.22-3.13,2-1.39-1.23-1-.79-2.24-.56.46-1.13.91-1.62,1.3a2.07,2.07,0,0,0-2.38-1.94c-.57,0-1.17-.74-1.91-1.24L31.46,120l-.88-.68L34.13,116a19.57,19.57,0,0,1-1.49,3.78c-1.52,2.35-1.26,3,1.65,3.41.15,0,.35-.07.46,0,.72.45,1.92.82,2,1.4.35,1.85,1.23,1.12,2.18.58l.29.37-2.31,3.1a5.32,5.32,0,0,1,1.93.54c.52.41,1.21,1.38,1,1.75a5.44,5.44,0,0,0-.14,3.26A1.87,1.87,0,0,1,38.84,136.54Z"/><path class="cls-15" d="M20.91,77.89c-.27.87-.52,1.73-.81,2.58-.22.65,0,1.36-1.16,1.7-.85.24-1.34,1.72-2.2,3l-1.82-2.8c-.14.55-.24,1-.42,1.7-.19-1.43-.32-2.63-1.82-2.47l-.8-2.41-2,2.5c.48-1.53.95-3.06,1.43-4.59l1.35,1.44L13,79c.9.19,1.78.15,1.91.44a1.74,1.74,0,0,0,2.54.76,5.57,5.57,0,0,0,2.21-2.13c.46-.72.37-1.78.8-2.52a23.93,23.93,0,0,1,2.19-2.87C22.06,74.44,21.48,76.17,20.91,77.89Z"/><path class="cls-2" d="M35.56,128.66c.25.17.65.3.72.53.46,1.5,1.41,1.81,2.56,1.22-.29,1.64-.55,3.27-.91,4.87-.06.26-.56.49-.9.58a7.64,7.64,0,0,1-1.44.09l-3-.6c-.29-.36-.59-.72-.92-1.14l1-1.85,2,.37c-.63-1.65-1.41-2.25-2.84-1.5.07-1,1.19-1.84,2.47-2A5.93,5.93,0,0,0,35.56,128.66Z"/><path class="cls-16" d="M47.7,134.85c.74-1.54,1.75-2.18,3.38-1.09.23.16.76-.06,1.13-.18a2,2,0,0,1,2.47,1.66,2.15,2.15,0,0,0,2.07,2c.46,1.23.91,2.44,1.37,3.65l-2.95-.5a10.67,10.67,0,0,0-.81-1.86,7,7,0,0,0-2.09-2.31c-.33-.17-1.34,1.08-2.09,1.62a3.64,3.64,0,0,1-1.07.35c1.06-.62.62-1.27-.17-1.49A1.45,1.45,0,0,1,47.7,134.85Z"/><path class="cls-17" d="M12.67,78.49l-1.35-1.44c.18-.37.37-.74.55-1.12a7.32,7.32,0,0,1,2.2-1.1c1.69-.19,2.08-.56,1.91-2.48l3.89.61c1.73,1.54-.85,1.78-.78,2.4-.64,0-1.44-.13-1.57.1A8.54,8.54,0,0,0,17,77.78c-1.36.89-1.36.89-2.42-1.06Z"/><path class="cls-11" d="M73.15,144.32l-.15.3-4.49-1-2.59-1.4.14-.3c.29.11.6.33.88.3a1,1,0,0,0,.68-.51.7.7,0,0,0-.29-.64c-.9-.26-1.82-.44-3-.71,0-.19.16-1.15.31-1.16a12.56,12.56,0,0,1,2.46.4l1-1.24h0C70.25,140,70.64,143,73.15,144.32Z"/><path class="cls-18" d="M97.3,93.66l-1.5-.81c1.09-.91,2.07-1.56,3.4-.26.23-1.33.41-2.46.55-3.26l2.07-.71-1,7.74-1.35,0C99.86,94.53,98.39,94.26,97.3,93.66Z"/><path class="cls-19" d="M49.11,138.18a3.64,3.64,0,0,0,1.07-.35c.75-.54,1.76-1.79,2.09-1.62a7,7,0,0,1,2.09,2.31,10.67,10.67,0,0,1,.81,1.86c-.13.1-.28.29-.37.27l-8.37-2.13C47.26,137.91,48.09,137.31,49.11,138.18Z"/><path class="cls-20" d="M99,104.64l-3.16-3.5c0-.56.09-1.12.15-2l1,.83c.94-.73.38-1.55-.12-2.17s-1.23-1-1.69-1.79h1.28l3,.49c-1.93,1.36-1.93,1.36-.67,2.58-1.22,1.58-.26,2.91.58,4.25Z"/><path class="cls-21" d="M99.25,103.37c-.84-1.34-1.8-2.67-.58-4.25-1.26-1.22-1.26-1.22.67-2.58a.62.62,0,0,1,.17-.22l1.35,0C100.32,98.7,99.79,101,99.25,103.37Z"/><path class="cls-13" d="M49.11,138.18c-1-.87-1.85-.27-2.68.34L44.6,138a10.27,10.27,0,0,0,1.76-1.86c.21-.37-.15-1.07-.28-1.78l1.07-.48c.18.33.36.67.55,1a1.45,1.45,0,0,0,1.24,1.84C49.73,136.91,50.17,137.56,49.11,138.18Z"/><path class="cls-22" d="M10.81,91.89c-.61-.65-1.23-1.3-1.84-2l-.24.21c0-.39-.07-.78-.1-1.17l-.4-.1c-.89,2.47-1.78,4.93-2.68,7.4q.76-3,1.52-6.08c.81-1.25,1.21-3,3.24-2.57.15.81.29,1.61.43,2.42C10.77,90.65,10.79,91.27,10.81,91.89Z"/><path class="cls-23" d="M30.26,108.52l0,.7-1.58-.51-.75.62a9.7,9.7,0,0,0-.68-1.11A7.5,7.5,0,0,0,26.08,107c-.26-.22-.77-.21-.94-.46-.94-1.4-1.43-.71-1.89.52-.35-.26-.62-.46-.9-.65a3.38,3.38,0,0,0-3.46-.31,14.07,14.07,0,0,1-3.14.55c.31-2,.55-3.62.75-4.89,1.26-.39,2.43-.7,3.55-1.11a12.36,12.36,0,0,0,2.4-1.16c1.09-.7,1.85.06,2.71.46.61.36,1.29,1.1,1.82,1,1.48-.25,2.08.61,2.77,1.57a11.56,11.56,0,0,0,1.23,1.3c1.52.53,1,1.47.48,2.42l-1.6.16Z"/><path class="cls-24" d="M31,103.87a11.56,11.56,0,0,1-1.23-1.3c-.69-1-1.29-1.82-2.77-1.57-.53.09-1.21-.65-1.82-1L26,98.14l-6.65-.76c0,.39,0,.89.07,1.35l-3-1.65c-.08-.94-.16-2-.25-3-.06-1.67-1.57-2-2.61-2.61-.85-.54-1.3.31-1.8.85-.13.14-.51,0-.77,0,0-.14-.09-.28-.14-.42,0-.62,0-1.24-.07-1.85.22.26.43.53.74.91.11-.39.21-.69.3-1l2.22.17c0,.32.07.61.11,1l1.1-.27a24.79,24.79,0,0,1,1.65,3.52c.43,1.46,1.47,2,2.82,1.09a5.06,5.06,0,0,0,.54-.51c1.09,1.78,2.27,2.18,4,1.43,1.21-.51,2.09.11,2.77,2L28.74,97l.38.2c-.32,1.05-.65,2.09-1,3.29a4.89,4.89,0,0,1,1.32-.23c.53.06,1.48.26,1.5.47.14,1.64,1.56,1.44,2.51,1.92l.67.74-.57.4A1.76,1.76,0,0,0,31,103.87Z"/><path class="cls-22" d="M11,92.31c.26,0,.64.11.77,0,.5-.54.95-1.39,1.8-.85,1,.66,2.55.94,2.61,2.61l-1,.89-.84-.81h0c-.24-.78-.48-1.57-.73-2.35-.57,1.18-1,2-2.23,1.83C11.2,93.17,11.07,92.74,11,92.31Z"/><path class="cls-1" d="M53.08,125.55l-1.62-.91c-1.08-1.25-2.08-2.57-3.25-3.72a16.34,16.34,0,0,1-4.75-7.46c-.36-1.38-.68-2.76-1-4.15l.1-6c.26-.94.51-1.88.77-2.82.49-1,.95-2,1.47-3,1.36-2.59,2.62-5.26,5.07-7.07l1.17-.8c2.58-1,5.11-2.26,7.75-3.13A19,19,0,0,1,71.62,87c1.13.42,2.58.15,3.34,1.45,1.12,1.06,2.18,2.18,3.36,3.17,3.85,3.26,5.11,7.63,5.52,12.4,0,.62,0,1.24,0,1.86-.14.29-.27.58-.4.87a13.24,13.24,0,0,1-.2,1.54c-.5,2-1,4.1-1.57,6.14-1.42,2.33-2.75,4.72-4.28,7-1.77,2.6-4.49,3.73-7.48,4.31a2.19,2.19,0,0,0-.63.35l-1.78.14c-2,1.2-4.21,1-6.35.75C58.47,126.59,55.78,126,53.08,125.55Zm21.76-8.41A12.93,12.93,0,0,0,77.08,115c2.76-4.25,3.71-8.69,1.86-13.72a27.92,27.92,0,0,0-5.16-8.08,6.24,6.24,0,0,0-1.89-1.49,17.58,17.58,0,0,0-10.45-1.8,13.45,13.45,0,0,0-8.56,3.92,19,19,0,0,0-5.12,9.66,11.15,11.15,0,0,0,.55,7.35c1,2,2.17,3.94,3.37,5.84a6.09,6.09,0,0,0,4.48,2.88,7.12,7.12,0,0,1,2.76,1c2.47,1.57,5,.85,7.48.31C69.61,120.52,72.2,118.77,74.84,117.14Z"/><path class="cls-25" d="M80,142.27l-.15.28-5-2.69c0,1,.06,1.64.08,2.21-1.26.26-3.84-.56-4.1-1.35-.4-1.18-.7-2.39-1-3.59.2-.42.63-.88.57-1.26a21.74,21.74,0,0,0-.87-2.85l-3.44-.26-.12-.32,1.43-.88c-.06-.52-.12-1.06-.18-1.6.9-.59,1.81-1.17,2.7-1.77a12.15,12.15,0,0,0,.92-.81l.79,1a11.6,11.6,0,0,1,.91-1.63,1.61,1.61,0,0,1,1-.68c.91,0,1.82.13,2.72.11s1.57-.15,2.59-.26a20.84,20.84,0,0,1,.85,2.33c.76,3,1.57,5.91,2.08,8.91.12.71-.91,1.6-1.48,2.53C81.56,140.37,80.5,141.32,80,142.27Z"/><path class="cls-26" d="M99.51,96.32a.62.62,0,0,0-.17.22l-3-.49L89.1,93.5l-2.53-1.27c-.94-.29-1.88-.58-2.82-.85-1.44-.42-2.9-.79-4.32-1.26-.35-.11-.58-.56-.86-.85l.26-.36c.75.09,1.52.15,2.27.26,1.2.18,2.4.39,3.6.58l4.08,1.13,8.52,2.78C98.39,94.26,99.86,94.53,99.51,96.32Z"/><path class="cls-27" d="M86.57,92.23,89.1,93.5c-.08,1.32,0,2.56,1.27,3.41.26.18.31.7.45,1.06q.3.77.57,1.5L93,98.16c.11.7.17,1.11.28,1.77.4-.93.7-1.61,1-2.29l.72.23c-.24,1-.49,2.09-.73,3.14l-.25-.3-1.83,1.14c-.19.12-.46.4-.56.35-1.21-.62-1.29.58-1.43,1.07a3.36,3.36,0,0,1-4.37,2.15l-.62.9-1.31-.47c0-.62,0-1.24,0-1.86.8,0,1.59,0,2.38.05,2.23.17,2.41,0,1.71-2.2l2,1.25c-.25-1.5,1-2.93-1-3.78a1.34,1.34,0,0,1-.54-1.15c.5-1.21-.18-2-.71-2.93a4,4,0,0,1-.24-1.49l-2-1.11Z"/><path class="cls-28" d="M81.71,114.4c.53-2,1.07-4.09,1.57-6.14a13.24,13.24,0,0,0,.2-1.54l3.68.55c0,.29-.09.74-.14,1.18,1.16.6,1.45,2.57.43,3.12a10.86,10.86,0,0,1-2.15.6l.79,1.57-4.61,2.69C81.58,115.57,81.64,115,81.71,114.4Z"/><path class="cls-11" d="M67.24,130c.06.54.12,1.08.18,1.6l-1.43.88.12.32,3.44.26a21.74,21.74,0,0,1,.87,2.85c.06.38-.37.84-.58,1.26l-1.73,1.22h0a9.76,9.76,0,0,0-1.16-2.08c-.26-.3-1-.2-1.62-.3-.17-.65-.44-1.65-.71-2.69.56-.85,1.16-1.79,1.58-2.43-.57-.8-1.32-1.53-1.2-1.74.37-.61.71-1.54,1.86-1.24.39.1.91-.3,1.38-.48l-.69-1.22,1.78-.14.61.4-3.59,2.87Z"/><path class="cls-29" d="M88.78,90.88,84.7,89.75A54,54,0,0,0,81,85.26a24.81,24.81,0,0,0-3.55-2.45L75,88.42c-.76-1.3-2.21-1-3.34-1.45a19,19,0,0,0-12.85-.57c-2.64.87-5.17,2.08-7.75,3.13L47.89,87l.29-.33-1.66-.18,2.56-3.26c-2-2.17-4,1-6,.23a13.21,13.21,0,0,0-1.15,2.1l4.21-.28c-1,1.7-2.55,3.12-1.16,4.82l-1.72,1.14,2.45.65c1-1.2,2.09-2.72,4.19-1.57-2.45,1.81-3.71,4.48-5.07,7.07-.52,1-1,2-1.47,3l-3.11-.11c0-1,.08-2.13.12-3.22A12.58,12.58,0,0,1,38.43,97c-1.11-.24-1.48.14-1.58,1.26a9.32,9.32,0,0,1-.89,2.38c-.27.68-.56,1.36-1,2.35l-.9.42-.67-.74.56-1c-.81-.14-1.38-.31-.67-1.39.29-.44,0-1.3-.11-2a6.34,6.34,0,0,1-.3-1.87,2.87,2.87,0,0,0-1-3.38,4.6,4.6,0,0,1-.93.41c-.32.07-.87.14-1,0a2.22,2.22,0,0,1-.16-1.14c0-.11.31-.28.29-.33-.95-2.27,1.12-4.27.57-6.47a16.2,16.2,0,0,0-1-2.44L34,84.19c-.13,1.58-.19,3.19-.42,4.76s0,1.69,1.38,1.46c.17.38.33.76.5,1.13.37-1.65.39-1.59,2.1-2.13.38-.12.7-.9.77-1.41a4,4,0,0,0-.47-1.47l1.4-.62c-1.36-1.88.14-3.27,1-4.46a3,3,0,0,0,.87-2.33,2.41,2.41,0,0,1,.6,0,55.35,55.35,0,0,0,7.62,2.19,86.94,86.94,0,0,1,12.08,3,11.31,11.31,0,0,0,2.56.14l-1.32-1.21a2.12,2.12,0,0,0-.83-3l1-.91L55,77.17c.08.65.17,1.16.2,1.67,0,.73,0,1.46,0,2.19a32.89,32.89,0,0,1-9.69-2.36,50.38,50.38,0,0,0-5.2-1.4L42,76.94l-1-.76L44.27,74c.56-.06,1.13-.1,1.7-.17a1.59,1.59,0,0,0,1.09-2.2l-1-.2a5.85,5.85,0,0,1,.68-1.74,6.35,6.35,0,0,1,1.77-1,13.19,13.19,0,0,1-.66-1.26,2.11,2.11,0,0,1,0-.79c2,.41,3.92.78,5.86,1.26,3,.74,6.09,1.54,9.13,2.34a12.89,12.89,0,0,1,1.45.58l1.51.82L62.52,74a24.82,24.82,0,0,0,.69,3.84c.43,1.26,1.27.56,1.86,0,.77.09,1.53,1.51,2.16-.09,0-.07.51-.07.53,0a17.9,17.9,0,0,1,1,2.75,9.38,9.38,0,0,1,0,2.12l.56.07L70.64,79l1.15,3.2c.6-1.85,1.49-2.17,2.8-1.68s2.51.69,3.72,1.15c1.56.6,1.59-.62,1.91-1.58,2,.19,1.41,1.75,1.19,2.54-.37,1.31.1,1.71,1.17,2,1.48.35,3.07.5,2.92,2.73,0,.4.91.87,1.45,1.33C86.45,90.12,88,90.25,88.78,90.88Z"/><path class="cls-26" d="M62.66,83.21,64,84.42a11.31,11.31,0,0,1-2.56-.14,86.94,86.94,0,0,0-12.08-3,55.35,55.35,0,0,1-7.62-2.19,2.41,2.41,0,0,0-.6,0c-2-.92-2-.91-2.56,1.21a12,12,0,0,1-.63,1.92c-.62,1.31-1.32,2.57-3.17,1.76-.19-.08-.49.11-.74.18L29.65,83c-1.43-.44-2.9-.78-4.29-1.34a16.47,16.47,0,0,1-3.53-1.91c-.5-.37-.62-1.24-.92-1.88.57-1.73,1.15-3.46,1.72-5.19l1.53-2a18.05,18.05,0,0,1,3.45-.54,30.08,30.08,0,0,1,4.08.64A14.84,14.84,0,0,1,38.37,74c.25.24.46.54.69.81a8.7,8.7,0,0,0,.29,1.86c.11.28.64.4,1,.59a50.38,50.38,0,0,1,5.2,1.4A32.89,32.89,0,0,0,55.22,81ZM36.47,77.72c.19-.89.38-1.78.58-2.7l-6.67-2.14a27.54,27.54,0,0,0-3.64-1.35,1.88,1.88,0,0,0-1.64.72c-.81,2.06-1.42,4.19-2.16,6.46.8.3,1.41.58,2,.75,2.17.58,4.33,1.19,6.52,1.64a31.59,31.59,0,0,0,3.78.33C35.68,80.19,36.07,79,36.47,77.72Z"/><path class="cls-30" d="M29.38,61.59A15.64,15.64,0,0,0,31,57.85a2,2,0,0,1,2.46-1.8,54.28,54.28,0,0,1,6,1.05,16.55,16.55,0,0,1,1.77.57c2,.7,2.65,1.72,2.21,3.79-.17.82-.4,1.61-.61,2.42.05,1-.48,1.3-1.34,1.1-3.71-.86-7.4-1.73-11.09-2.65C30.07,62.24,29.74,61.85,29.38,61.59Z"/><path class="cls-31" d="M40.33,77.27c-.34-.19-.87-.31-1-.59a8.7,8.7,0,0,1-.29-1.86c1.54-.24,1.66-1.45,1.81-2.73l-1.81-.77,1.87-.81a15.74,15.74,0,0,1,.63-4.09c.21-.5,1.69-.47,2.6-.65a5.74,5.74,0,0,1,.93,0l1,.28a8.42,8.42,0,0,0-2.25,1c-.46.38-.58,1.18-.84,1.8l-.16-.06-.35,3.2L44.27,74,41,76.18l1,.76Z"/><path class="cls-17" d="M31.69,70.84a30.08,30.08,0,0,0-4.08-.64,18.05,18.05,0,0,0-3.45.54l-.44-.95c-.5.41-.12,1.71-1.3,1.07-.05,0-.5.41-.46.53.32,1-.69.76-1,1.13l-2.36-1,1.71-.76a5,5,0,0,1-.06-1.24c.06-.29.49-.8.57-.77,1.34.57,2.38-.5,3.57-.61a6.22,6.22,0,0,1,2.07.33c1.3.37,2.63.67,3.89,1.15C30.85,69.87,31.24,70.44,31.69,70.84Z"/><path class="cls-32" d="M18.57,71.57l2.36,1L19.87,73,16,72.35l-1.07-1.43.27-.24Z"/><path class="cls-33" d="M39.77,134.18a5.44,5.44,0,0,1,.14-3.26c.17-.37-.52-1.34-1-1.75a5.32,5.32,0,0,0-1.93-.54l2.31-3.1-.29-.37c-1,.54-1.83,1.27-2.18-.58-.11-.58-1.31-1-2-1.4-.11-.06-.31,0-.46,0-2.91-.37-3.17-1.06-1.65-3.41A19.57,19.57,0,0,0,34.13,116a8.74,8.74,0,0,0,2.28-1.79,5.9,5.9,0,0,0,.57-2.75c0-.19-.74-.36-1-.65-1.12-1.06-3.09-.74-3.83-2.37,0-.09.1-.18.14-.27a5,5,0,0,0,1.19-.28,5.89,5.89,0,0,0,1-.84,13.3,13.3,0,0,0-1-1.11c-.14-.13-.42-.1-.79-.17l.83-1.26c.72,1.58,1.51-.68,2.26.13,0,1.16.83,2.63-1,3.31.22.37.57,1.08.65,1,1.64-.61,1.79.19,1.36,1.56l1.39.27c0,.79,0,1.41-.08,2a1,1,0,0,1-.18.38c-1.34,2.05-1,2.85,1.2,3.48a6.77,6.77,0,0,1,.68,2.07,6.21,6.21,0,0,1-.67,2.33c0,.09-.91-.25-1.41-.28a15.71,15.71,0,0,0-1.68,0l-.27.55c1.72,0,1.54.83.78,2.09l3.06-.5a4.87,4.87,0,0,0,.81,1.77c.24.23,1-.13,1.72-.25-.48.88-1,1.78-1.47,2.71l1.57.85-1.75,2.37,1.65.71-1,1.89h0Z"/><path class="cls-2" d="M32.25,108.17c0,.09-.09.18-.14.27l-1.85.08-.4-2.07,1.6-.16c.06.21.1.62.17.62C32.56,107,32.64,107.45,32.25,108.17Z"/><path class="cls-8" d="M47.15,133.85c-.76-.49-1.49-.93-.87-2.08.12-.25-.46-.87-.93-1.68l2.34-.13-.47-.57,2.19-.43A12.86,12.86,0,0,1,47.15,133.85Z"/><path class="cls-2" d="M11.33,93.6c1.26.15,1.66-.65,2.23-1.83.25.78.49,1.57.73,2.35l-1.3.11c-.06.54-.14,1.18-.21,1.84C11.21,95.62,10.81,94.9,11.33,93.6Z"/><path class="cls-3" d="M68.11,138.35l1.73-1.22c.34,1.2.64,2.41,1,3.59.26.79,2.84,1.61,4.1,1.35,0-.57,0-1.16-.08-2.21l5,2.69c-.36.75-.71,1.25-1.61.47A9.62,9.62,0,0,0,76.08,142c0,.86.06,1.43.09,2l-1.32.55-1.7-.2C70.64,143,70.25,140,68.11,138.35Z"/><path class="cls-34" d="M41.08,133.08l1-1.89-1.65-.71,1.75-2.37-1.57-.85c.51-.93,1-1.83,1.47-2.71-.69.12-1.48.48-1.72.25a4.87,4.87,0,0,1-.81-1.77l-3.06.5c.76-1.26.94-2.1-.78-2.09l.27-.55a15.71,15.71,0,0,1,1.68,0c.5,0,1.37.37,1.41.28a6.21,6.21,0,0,0,.67-2.33,6.77,6.77,0,0,0-.68-2.07c-2.24-.63-2.54-1.43-1.2-3.48a1,1,0,0,0,.18-.38c0-.62,0-1.24.08-2l-1.39-.27c.43-1.37.28-2.17-1.36-1.56-.08,0-.43-.68-.65-1,1.86-.68,1.06-2.15,1-3.31-.75-.81-1.54,1.45-2.26-.13,0-.23,0-.47,0-.71l.57-.4L35,103c.4-1,.69-1.67,1-2.35a9.32,9.32,0,0,0,.89-2.38c.1-1.12.47-1.5,1.58-1.26a12.58,12.58,0,0,0,1.89.12c0,1.09-.08,2.2-.12,3.22l3.11.11c-.26.94-.51,1.88-.77,2.82-.14-.42-.29-.83-.51-1.47-.12.47-.18.68-.25.94l-2.58-1.4c.25,1,.42,1.56.64,2.37l-2.79.49c-.12.91-.26,1.75-.35,2.6a2.15,2.15,0,0,0,0,1.16,26.07,26.07,0,0,0,1.69,2.32l4-1c.34,1.39.66,2.77,1,4.15a16.34,16.34,0,0,0,4.75,7.46c1.17,1.15,2.17,2.47,3.25,3.72a16.66,16.66,0,0,0-1.56-1.13,5.87,5.87,0,0,0-1.28-.34l-.07.44,1.38.53c-.79.65-2.45-.68-2.1.84l-4.28,1.2c1.13,1.19-1.29,3.14,1.65,4Z"/><path class="cls-34" d="M39.77,134.18l1.31-1.1c.1,1.07.52,2.25.21,3.18-.41,1.22-1.55.78-2.45.28A1.87,1.87,0,0,0,39.77,134.18Z"/><path class="cls-35" d="M19.87,73l1.06-.44c.34-.37,1.35-.12,1-1.13,0-.12.41-.56.46-.53,1.18.64.8-.66,1.3-1.07l.44.95-1.53,2a23.93,23.93,0,0,0-2.19,2.87c-.43.74-.34,1.8-.8,2.52a5.57,5.57,0,0,1-2.21,2.13,1.74,1.74,0,0,1-2.54-.76c-.13-.29-1-.25-1.91-.44l-.31-.54,1.89-1.77c1.06,2,1.06,2,2.42,1.06a8.54,8.54,0,0,1,.54-2.32c.13-.23.93-.08,1.57-.1C19,74.74,21.6,74.5,19.87,73Z"/><path class="cls-36" d="M44.27,74l-1.81-2.1.35-3.2.16.06c.26-.62.38-1.42.84-1.8a8.42,8.42,0,0,1,2.25-1l1.83.61a2.11,2.11,0,0,0,0,.79,13.19,13.19,0,0,0,.66,1.26,6.35,6.35,0,0,0-1.77,1,5.85,5.85,0,0,0-.68,1.74l1,.2A1.59,1.59,0,0,1,46,73.82C45.4,73.89,44.83,73.93,44.27,74Z"/><path class="cls-7" d="M33.53,103.8c0,.24,0,.48,0,.71l-.83,1.26c.37.07.65,0,.79.17a13.3,13.3,0,0,1,1,1.11,5.89,5.89,0,0,1-1,.84,5,5,0,0,1-1.19.28c.39-.72.31-1.18-.62-1.26-.07,0-.11-.41-.17-.62.53-1,1-1.89-.48-2.42A1.76,1.76,0,0,1,33.53,103.8Z"/><path class="cls-37" d="M75,88.42l2.44-5.61A24.81,24.81,0,0,1,81,85.26a54,54,0,0,1,3.75,4.49c-1.2-.19-2.4-.4-3.6-.58-.75-.11-1.52-.17-2.27-.26l-.26.36c.28.29.51.74.86.85,1.42.47,2.88.84,4.32,1.26.94.27,1.88.56,2.82.85l-1.13.4,2,1.11a4,4,0,0,0,.24,1.49c.53.92,1.21,1.72.71,2.93A1.34,1.34,0,0,0,89,99.31c2,.85.7,2.28,1,3.78l-2-1.25c.7,2.18.52,2.37-1.71,2.2-.79-.06-1.58,0-2.38-.05-.4-4.77-1.66-9.14-5.51-12.4C77.14,90.6,76.08,89.48,75,88.42Z"/><path class="cls-38" d="M66.4,120.86c-2.51.54-5,1.26-7.48-.31a7.12,7.12,0,0,0-2.76-1,6.09,6.09,0,0,1-4.48-2.88c-1.2-1.9-2.35-3.84-3.37-5.84a11.15,11.15,0,0,1-.55-7.35,19,19,0,0,1,5.12-9.66,13.45,13.45,0,0,1,8.56-3.92,17.58,17.58,0,0,1,10.45,1.8,6.24,6.24,0,0,1,1.89,1.49,27.92,27.92,0,0,1,5.16,8.08c1.85,5,.9,9.47-1.86,13.72a12.93,12.93,0,0,1-2.24,2.12l.21-1,1.15-1.65a13.57,13.57,0,0,0,2.32-11.31c-.87-3.77-3.33-6.52-6-9.06a5,5,0,0,0-2.18-1.29,63.7,63.7,0,0,0-7.52-1.11,10.72,10.72,0,0,0-8.17,2.4,16.62,16.62,0,0,0-5.86,10.77,12.71,12.71,0,0,0,3.64,10.65c2.22,2.43,5.45,3,8.32,4.07,1.73.66,3.8.42,5.72.59Z"/><path class="cls-39" d="M42.44,109.31l-4,1A26.07,26.07,0,0,1,36.72,108a2.15,2.15,0,0,1,0-1.16c.09-.85.23-1.69.35-2.6l2.79-.49c-.22-.81-.39-1.41-.64-2.37l2.58,1.4c.07-.26.13-.47.25-.94.22.64.37,1,.51,1.47C42.51,105.28,42.47,107.29,42.44,109.31Z"/><path class="cls-40" d="M49.85,90.33c-2.1-1.15-3.18.37-4.19,1.57l-2.45-.65,1.72-1.14c-1.39-1.7.14-3.12,1.16-4.82l-4.21.28A13.21,13.21,0,0,1,43,83.47c2.07.72,4-2.4,6-.23L46.52,86.5l1.66.18-.29.33L51,89.53Z"/><path class="cls-41" d="M66.4,120.86l0-.7c3.12-.83,5.83-2.55,8.63-4.06l-.21,1C72.2,118.77,69.61,120.52,66.4,120.86Z"/><path class="cls-42" d="M34,84.19c.25-.07.55-.26.74-.18,1.85.81,2.55-.45,3.17-1.76a12,12,0,0,0,.63-1.92c.58-2.12.6-2.13,2.56-1.21a3,3,0,0,1-.87,2.33c-.83,1.19-2.33,2.58-1,4.46l-1.4.62A4,4,0,0,1,38.35,88c-.07.51-.39,1.29-.77,1.41-1.71.54-1.73.48-2.1,2.13-.17-.37-.33-.75-.5-1.13-1.42.23-1.59,0-1.38-1.46S33.89,85.77,34,84.19Z"/><path class="cls-43" d="M62.66,83.21,55.22,81c0-.73,0-1.46,0-2.19,0-.51-.12-1-.2-1.67l7.85,2.1-1,.91A2.12,2.12,0,0,1,62.66,83.21Z"/><path class="cls-44" d="M35.29,81.43a31.59,31.59,0,0,1-3.78-.33C29.32,80.65,27.16,80,25,79.46c-.64-.17-1.25-.45-2-.75.74-2.27,1.35-4.4,2.16-6.46a1.88,1.88,0,0,1,1.64-.72,27.54,27.54,0,0,1,3.64,1.35c.12.93.24,1.86.35,2.79L31,79.43,32.9,78v1.49l.72-.9Z"/><path class="cls-45" d="M35.29,81.43l-1.67-2.85-.72.9V78L31,79.43c-.1-1.51-.18-2.63-.26-3.76l1,.88.66-2,3.81,3.7s.14-.27.29-.54C36.07,79,35.68,80.19,35.29,81.43Z"/><path class="cls-46" d="M36.47,77.72c-.15.27-.3.54-.29.54l-3.81-3.7-.66,2-1-.88c-.11-.93-.23-1.86-.35-2.79L37.05,75C36.85,75.94,36.66,76.83,36.47,77.72Z"/><path class="cls-1" d="M75.05,116.1c-2.8,1.51-5.51,3.23-8.63,4.06-1.92-.17-4,.07-5.72-.59-2.87-1.1-6.1-1.64-8.32-4.07a12.71,12.71,0,0,1-3.64-10.65A16.62,16.62,0,0,1,54.6,94.08a10.72,10.72,0,0,1,8.17-2.4,63.7,63.7,0,0,1,7.52,1.11,5,5,0,0,1,2.18,1.29c2.72,2.54,5.18,5.29,6,9.06a13.57,13.57,0,0,1-2.32,11.31ZM59.68,114a9,9,0,0,0,9.61-1.2c1.74-1.41,3.41-2.83,3.84-5.19.64-3.55-.78-6.4-4.06-8.71a8.2,8.2,0,0,0-8.73-.8,9.49,9.49,0,0,0-2.88,3c-1.5,2-2.35,4.29-1.43,6.8a21.61,21.61,0,0,0,1.85,3.49C58.43,112.27,59.08,113.13,59.68,114Z"/><path class="cls-47" d="M59.68,114c-.6-.88-1.25-1.74-1.8-2.65A21.61,21.61,0,0,1,56,107.87c-.92-2.51-.07-4.78,1.43-6.8a9.49,9.49,0,0,1,2.88-3,8.2,8.2,0,0,1,8.73.8c3.28,2.31,4.7,5.16,4.06,8.71-.43,2.36-2.1,3.78-3.84,5.19A9,9,0,0,1,59.68,114Z"/></g></g></svg>